name C:\Users\u0101727\Documents\MyRepositories\upper-imu-dc\Results\main_tracking\Case_46\FLX02_angularVelocities_bodyFrame.mot
datacolumns 4
datarows 105
range 3.76000000 4.80000000
endheader 
time	radius_imu_x	radius_imu_y	radius_imu_z	
          3.76000000	          0.06162965	          0.23605452	         -0.03633291	
          3.77000000	          0.07073106	          0.23723892	         -0.02149349	
          3.78000000	          0.08008803	          0.23674061	         -0.00595253	
          3.79000000	          0.08965157	          0.23424643	          0.01038173	
          3.80000000	          0.09937557	          0.22953899	          0.02759578	
          3.81000000	          0.10922183	          0.22251661	          0.04575957	
          3.82000000	          0.11916402	          0.21320607	          0.06491588	
          3.83000000	          0.12918975	          0.20176575	          0.08507249	
          3.84000000	          0.13929987	          0.18847484	          0.10619863	
          3.85000000	          0.14950455	          0.17370455	          0.12822707	
          3.86000000	          0.15981659	          0.15787293	          0.15106127	
          3.87000000	          0.17024268	          0.14139317	          0.17458593	
          3.88000000	          0.18077413	          0.12462851	          0.19867819	
          3.89000000	          0.19137920	          0.10786383	          0.22321710	
          3.90000000	          0.20199838	          0.09129546	          0.24808999	
          3.91000000	          0.21254366	          0.07503316	          0.27319506	
          3.92000000	          0.22290155	          0.05910625	          0.29844034	
          3.93000000	          0.23293947	          0.04347101	          0.32373944	
          3.94000000	          0.24251510	          0.02802292	          0.34900522	
          3.95000000	          0.25148780	          0.01261773	          0.37414303	
          3.96000000	          0.25973115	         -0.00289953	          0.39904553	
          3.97000000	          0.26714501	         -0.01866327	          0.42359081	
          3.98000000	          0.27366533	         -0.03476063	          0.44764457	
          3.99000000	          0.27927094	         -0.05121546	          0.47106593	
          4.00000000	          0.28398605	         -0.06798642	          0.49371534	
          4.01000000	          0.28787832	         -0.08497799	          0.51546285	
          4.02000000	          0.29105211	         -0.10205793	          0.53619492	
          4.03000000	          0.29363777	         -0.11907295	          0.55581857	
          4.04000000	          0.29577831	         -0.13585633	          0.57426223	
          4.05000000	          0.29761588	         -0.15222638	          0.59147365	
          4.06000000	          0.29928006	         -0.16798021	          0.60741567	
          4.07000000	          0.30087957	         -0.18289076	          0.62206149	
          4.08000000	          0.30249816	         -0.19671397	          0.63539113	
          4.09000000	          0.30419479	         -0.20920738	          0.64739038	
          4.10000000	          0.30600676	         -0.22015536	          0.65805246	
          4.11000000	          0.30795424	         -0.22939241	          0.66738164	
          4.12000000	          0.31004448	         -0.23681778	          0.67539770	
          4.13000000	          0.31227522	         -0.24239911	          0.68214033	
          4.14000000	          0.31463753	         -0.24616723	          0.68767255	
          4.15000000	          0.31711814	         -0.24820642	          0.69208193	
          4.16000000	          0.31970127	         -0.24864376	          0.69547894	
          4.17000000	          0.32236921	         -0.24763888	          0.69799194	
          4.18000000	          0.32510134	         -0.24537392	          0.69975970	
          4.19000000	          0.32787199	         -0.24204398	          0.70092318	
          4.20000000	          0.33064823	         -0.23784824	          0.70161853	
          4.21000000	          0.33338894	         -0.23298215	          0.70197267	
          4.22000000	          0.33604615	         -0.22763155	          0.70210172	
          4.23000000	          0.33856864	         -0.22197000	          0.70211145	
          4.24000000	          0.34090746	         -0.21615863	          0.70209851	
          4.25000000	          0.34302220	         -0.21034567	          0.70215123	
          4.26000000	          0.34488677	         -0.20466431	          0.70234918	
          4.27000000	          0.34649353	         -0.19923087	          0.70276111	
          4.28000000	          0.34785485	         -0.19414765	          0.70344118	
          4.29000000	          0.34900199	         -0.18951290	          0.70442379	
          4.30000000	          0.34998184	         -0.18543660	          0.70571789	
          4.31000000	          0.35085249	         -0.18205614	          0.70730151	
          4.32000000	          0.35167853	         -0.17954426	          0.70911751	
          4.33000000	          0.35252638	         -0.17810283	          0.71107112	
          4.34000000	          0.35346007	         -0.17794050	          0.71303010	
          4.35000000	          0.35453726	         -0.17923914	          0.71482832	
          4.36000000	          0.35580564	         -0.18211957	          0.71627365	
          4.37000000	          0.35729999	         -0.18661782	          0.71716053	
          4.38000000	          0.35904004	         -0.19267854	          0.71728602	
          4.39000000	          0.36102963	         -0.20016547	          0.71646688	
          4.40000000	          0.36325702	         -0.20888400	          0.71455461	
          4.41000000	          0.36569609	         -0.21860898	          0.71144573	
          4.42000000	          0.36830808	         -0.22911119	          0.70708629	
          4.43000000	          0.37104346	         -0.24017815	          0.70147154	
          4.44000000	          0.37384394	         -0.25162564	          0.69464240	
          4.45000000	          0.37664438	         -0.26329900	          0.68668019	
          4.46000000	          0.37937480	         -0.27506575	          0.67770058	
          4.47000000	          0.38196271	         -0.28680408	          0.66784670	
          4.48000000	          0.38433652	         -0.29839110	          0.65728144	
          4.49000000	          0.38643028	         -0.30969269	          0.64617910	
          4.50000000	          0.38818978	         -0.32055420	          0.63471696	
          4.51000000	          0.38957913	         -0.33079036	          0.62306784	
          4.52000000	          0.39058655	         -0.34017473	          0.61139472	
          4.53000000	          0.39122846	         -0.34843087	          0.59984845	
          4.54000000	          0.39155093	         -0.35523049	          0.58856817	
          4.55000000	          0.39162836	         -0.36020287	          0.57768327	
          4.56000000	          0.39155928	         -0.36295705	          0.56731492	
          4.57000000	          0.39145963	         -0.36311343	          0.55757549	
          4.58000000	          0.39145461	         -0.36033740	          0.54856547	
          4.59000000	          0.39167030	         -0.35436588	          0.54036816	
          4.60000000	          0.39222651	         -0.34502045	          0.53304377	
          4.61000000	          0.39323215	         -0.33220818	          0.52662488	
          4.62000000	          0.39478426	         -0.31591938	          0.52111551	
          4.63000000	          0.39697077	         -0.29623054	          0.51649475	
          4.64000000	          0.39987456	         -0.27331321	          0.51272399	
          4.65000000	          0.40357655	         -0.24744274	          0.50975617	
          4.66000000	          0.40815565	         -0.21900131	          0.50754537	
          4.67000000	          0.41368523	         -0.18847230	          0.50605514	
          4.68000000	          0.42022637	         -0.15642364	          0.50526416	
          4.69000000	          0.42781860	         -0.12347673	          0.50516791	
          4.70000000	          0.43646976	         -0.09026042	          0.50577644	
          4.71000000	          0.44614785	         -0.05736065	          0.50710955	
          4.72000000	          0.45677790	         -0.02528393	          0.50919138	
          4.73000000	          0.46824516	          0.00555534	          0.51204482	
          4.74000000	          0.48040398	          0.03482844	          0.51568582	
          4.75000000	          0.49309072	          0.06227930	          0.52011784	
          4.76000000	          0.50613867	          0.08771352	          0.52532727	
          4.77000000	          0.51939260	          0.11099199	          0.53128061	
          4.78000000	          0.53272101	          0.13202730	          0.53792323	
          4.79000000	          0.54602435	          0.15078074	          0.54517906	
          4.80000000	          0.55923909	          0.16725915	          0.55295064	
